<svg xmlns="http://www.w3.org/2000/svg" viewBox="0 0 572 330" font-family="Inter, ui-sans-serif, system-ui" font-size="12">
<rect width="572" height="330" fill="#f1f5f9" rx="14"/>
<rect x="8" y="8" width="556" height="314" fill="white" rx="10" stroke="#e2e8f0" stroke-width="1.5"/>
<text x="20" y="28" fill="#94a3b8" font-size="11" font-weight="500">Viz Agent</text>
<rect x="20" y="44" width="532" height="36" fill="#4f6ef7" rx="6"/>
<text x="30" y="67" fill="white" font-weight="600" font-size="11">Hotel Name</text>
<text x="220" y="67" fill="white" font-weight="600" font-size="11">Town</text>
<text x="310" y="67" fill="white" font-weight="600" font-size="11">Rating</text>
<text x="368" y="67" fill="white" font-weight="600" font-size="11">Rooms</text>
<text x="426" y="67" fill="white" font-weight="600" font-size="11">Single £</text>
<text x="494" y="67" fill="white" font-weight="600" font-size="11">Double £</text>
<rect x="20" y="80" width="532" height="30" fill="white"/>
<line x1="20" y1="80" x2="552" y2="80" stroke="#f1f5f9" stroke-width="1"/>
<text x="30" y="100" fill="#1e293b" font-size="11" >St Ives Bay Resort</text>
<text x="220" y="100" fill="#1e293b" font-size="11" >St Ives</text>
<text x="310" y="100" fill="#16a34a" font-size="11" font-weight="600">4.8</text>
<text x="368" y="100" fill="#1e293b" font-size="11" >6</text>
<text x="426" y="100" fill="#1e293b" font-size="11" >140.0</text>
<text x="494" y="100" fill="#1e293b" font-size="11" >210.0</text>
<rect x="20" y="110" width="532" height="30" fill="#f8fafc"/>
<line x1="20" y1="110" x2="552" y2="110" stroke="#f1f5f9" stroke-width="1"/>
<text x="30" y="130" fill="#1e293b" font-size="11" >Penzance Palace</text>
<text x="220" y="130" fill="#1e293b" font-size="11" >Penzance</text>
<text x="310" y="130" fill="#16a34a" font-size="11" font-weight="600">4.7</text>
<text x="368" y="130" fill="#1e293b" font-size="11" >3</text>
<text x="426" y="130" fill="#1e293b" font-size="11" >130.0</text>
<text x="494" y="130" fill="#1e293b" font-size="11" >200.0</text>
<rect x="20" y="140" width="532" height="30" fill="white"/>
<line x1="20" y1="140" x2="552" y2="140" stroke="#f1f5f9" stroke-width="1"/>
<text x="30" y="160" fill="#1e293b" font-size="11" >Land's End Lodge</text>
<text x="220" y="160" fill="#1e293b" font-size="11" >Land's End</text>
<text x="310" y="160" fill="#16a34a" font-size="11" font-weight="600">4.6</text>
<text x="368" y="160" fill="#1e293b" font-size="11" >2</text>
<text x="426" y="160" fill="#1e293b" font-size="11" >150.0</text>
<text x="494" y="160" fill="#1e293b" font-size="11" >220.0</text>
<rect x="20" y="170" width="532" height="30" fill="#f8fafc"/>
<line x1="20" y1="170" x2="552" y2="170" stroke="#f1f5f9" stroke-width="1"/>
<text x="30" y="190" fill="#1e293b" font-size="11" >Seaview Hotel</text>
<text x="220" y="190" fill="#1e293b" font-size="11" >Newquay</text>
<text x="310" y="190" fill="#16a34a" font-size="11" font-weight="600">4.5</text>
<text x="368" y="190" fill="#1e293b" font-size="11" >5</text>
<text x="426" y="190" fill="#1e293b" font-size="11" >120.0</text>
<text x="494" y="190" fill="#1e293b" font-size="11" >180.0</text>
<rect x="20" y="200" width="532" height="30" fill="white"/>
<line x1="20" y1="200" x2="552" y2="200" stroke="#f1f5f9" stroke-width="1"/>
<text x="30" y="220" fill="#1e293b" font-size="11" >Padstow Quay Inn</text>
<text x="220" y="220" fill="#1e293b" font-size="11" >Padstow</text>
<text x="310" y="220" fill="#16a34a" font-size="11" font-weight="600">4.5</text>
<text x="368" y="220" fill="#1e293b" font-size="11" >5</text>
<text x="426" y="220" fill="#1e293b" font-size="11" >125.0</text>
<text x="494" y="220" fill="#1e293b" font-size="11" >185.0</text>
<rect x="20" y="230" width="532" height="30" fill="#f8fafc"/>
<line x1="20" y1="230" x2="552" y2="230" stroke="#f1f5f9" stroke-width="1"/>
<text x="30" y="250" fill="#1e293b" font-size="11" >Bude Beach Hotel</text>
<text x="220" y="250" fill="#1e293b" font-size="11" >Bude</text>
<text x="310" y="250" fill="#0369a1" font-size="11" font-weight="600">4.4</text>
<text x="368" y="250" fill="#1e293b" font-size="11" >7</text>
<text x="426" y="250" fill="#1e293b" font-size="11" >115.0</text>
<text x="494" y="250" fill="#1e293b" font-size="11" >175.0</text>
<line x1="20" y1="260" x2="552" y2="260" stroke="#e2e8f0" stroke-width="1"/>
<text x="24" y="284" fill="#94a3b8" font-size="10">10 records found</text>
<rect x="434" y="268" width="114" height="26" rx="6" fill="white" stroke="#e2e8f0" stroke-width="1.5"/>
<line x1="446" y1="274" x2="446" y2="282" stroke="#64748b" stroke-width="1.5" stroke-linecap="round"/>
<polyline points="443,281 446,285 449,281" fill="none" stroke="#64748b" stroke-width="1.5" stroke-linecap="round" stroke-linejoin="round"/>
<line x1="442" y1="287" x2="450" y2="287" stroke="#64748b" stroke-width="1.5" stroke-linecap="round"/>
<text x="458" y="285" fill="#475569" font-size="10" font-weight="500">Download CSV</text>
</svg>